<svg width="14" height="14" viewBox="0 0 14 14" fill="none" xmlns="http://www.w3.org/2000/svg">
<path d="M8.75 8.75L9.625 9.625" stroke="#FAFAFA" stroke-width="0.875" stroke-linecap="round" stroke-linejoin="round"/>
<path d="M9.88116 11.1179C9.53961 10.7765 9.53961 10.2227 9.88116 9.88116C10.2227 9.53961 10.7765 9.53961 11.1179 9.88116L12.2855 11.0488C12.6271 11.3902 12.6271 11.944 12.2855 12.2855C11.944 12.6271 11.3902 12.6271 11.0488 12.2855L9.88116 11.1179Z" stroke="#FAFAFA" stroke-width="0.875" stroke-linecap="round"/>
<path d="M3.14596 2.08671L4.77249 2.63493C4.99738 2.71278 5.33864 2.66187 5.53187 2.52421L6.6729 1.71046C7.40294 1.1904 8.00716 1.50057 8.0078 2.4021L8.01404 3.92824C8.01509 4.1867 8.19488 4.50744 8.41386 4.64679L9.57971 5.37773C10.5019 5.95692 10.397 6.64263 9.34603 6.90904L7.88326 7.2784C7.61895 7.34502 7.3463 7.61773 7.27665 7.88513L6.90735 9.34819C6.64403 10.3963 5.95231 10.5011 5.37633 9.58187L4.64553 8.41579C4.5062 8.1968 4.18553 8.01702 3.92712 8.01597L2.40126 8.00967C1.50297 8.00594 1.18979 7.40469 1.70975 6.67454L2.52335 5.5333C2.65792 5.34309 2.70881 5.00176 2.63098 4.77684L2.08286 3.15C1.78698 2.26573 2.26491 1.7877 3.14596 2.08671Z" stroke="#FAFAFA" stroke-width="0.875" stroke-linecap="round" stroke-linejoin="round"/>
</svg>
